<?xml version="1.0" standalone="no"?>
<!DOCTYPE svg PUBLIC "-//W3C//DTD SVG 20010904//EN"
 "http://www.w3.org/TR/2001/REC-SVG-20010904/DTD/svg10.dtd">
<svg version="1.0" xmlns="http://www.w3.org/2000/svg"
 width="509.000000pt" height="509.000000pt" viewBox="0 0 509.000000 509.000000"
 preserveAspectRatio="xMidYMid meet">
<metadata>
Created by potrace 1.14, written by Peter Selinger 2001-2017
</metadata>
<g transform="translate(0.000000,509.000000) scale(0.100000,-0.100000)"
fill="#000000" stroke="none">
<path d="M2107 4194 c-1 -1 -44 -4 -96 -8 -52 -4 -97 -9 -101 -11 -3 -2 -24
-6 -46 -9 -21 -2 -75 -14 -119 -26 -44 -12 -84 -23 -90 -24 -92 -20 -334 -150
-468 -253 -71 -55 -235 -215 -294 -288 -123 -152 -257 -406 -288 -545 -1 -8
-8 -35 -15 -60 -30 -112 -48 -253 -50 -381 0 -54 -1 -55 -39 -72 -105 -47
-239 -156 -321 -261 -141 -184 -199 -432 -155 -671 54 -298 269 -544 575 -656
l65 -24 1735 -3 c1276 -2 1751 0 1795 9 33 6 67 12 75 14 87 17 252 94 350
163 216 152 370 362 444 603 25 82 26 89 23 344 -2 257 -3 261 -31 340 -98
278 -304 513 -568 649 -74 39 -167 75 -208 83 -8 1 -49 9 -90 17 -81 16 -363
15 -430 -1 l-35 -9 -35 81 c-155 358 -444 662 -795 835 -123 60 -231 101 -299
114 -11 2 -39 9 -61 14 -44 12 -96 19 -195 28 -62 5 -229 11 -233 8z"/>
</g>
</svg>
